<?xml version="1.0" encoding="utf-8"?>
<!-- Generator: Adobe Illustrator 17.0.0, SVG Export Plug-In . SVG Version: 6.00 Build 0)  -->
<!DOCTYPE svg PUBLIC "-//W3C//DTD SVG 1.1//EN" "http://www.w3.org/Graphics/SVG/1.1/DTD/svg11.dtd">
<svg version="1.1" id="Capa_1" xmlns="http://www.w3.org/2000/svg" xmlns:xlink="http://www.w3.org/1999/xlink" x="0px" y="0px"
	 width="1300px" height="257.513px" viewBox="0 0 1300 257.513" enable-background="new 0 0 1300 257.513" xml:space="preserve">
<path fill="#FFFFFF" d="M168.113,66.053l-15.788-15.788L130,72.591l6.379,6.379l-3.827,3.827l-6.379-6.379l-75.908,75.908
	l15.788,15.788c7.134-7.134,18.7-7.134,25.834,0s7.134,18.7,0,25.834l15.788,15.788l75.908-75.908l-6.379-6.379l3.827-3.827
	l6.379,6.379l22.326-22.326l-15.788-15.788c-7.134,7.134-18.7,7.134-25.834,0S160.98,73.186,168.113,66.053z M177.203,119.794
	l-3.827,3.827l-6.379-6.379l3.827-3.827L177.203,119.794z M166.997,109.588l-3.827,3.827l-6.379-6.379l3.827-3.827L166.997,109.588z
	 M156.791,99.382l-3.827,3.827l-6.379-6.379l3.827-3.827L156.791,99.382z M146.585,89.176l-3.827,3.827l-6.379-6.379l3.827-3.827
	L146.585,89.176z"/>
<path fill="#FFFFFF" d="M1120.649,143.029c-12.515-4.013-24.135-17.884-22.498-31.593c3.829,1.168,7.67,2.34,11.511,3.512
	c-11.97-11.88-15.296-27.577-7.322-42.812c17.146,20.071,38.562,31.728,65.126,33.343c-0.121-2.078-0.269-4.279-0.375-6.482
	c-0.707-14.661,11.924-29.888,27.137-32.003c10.437-1.451,19.183,1.349,26.908,8.307c0.923,0.832,2.989,1.189,4.192,0.783
	c5.816-1.964,11.518-4.265,17.126-6.395c-0.523,4.834-3.567,9.256-11.12,16.627c5.197-1.463,10.394-2.926,16.653-4.688
	c-4.144,4.659-7.427,9.153-11.531,12.7c-3.092,2.673-5.098,4.89-5.093,9.389c0.015,11.53-2.47,22.622-6.908,33.371
	c-5.53,13.395-13.489,25.037-24.311,34.515c-7.551,6.613-16.07,11.841-25.647,15.446c-11.327,4.263-22.895,6.275-34.929,6.331
	c-12.003,0.055-23.345-2.926-34.34-7.337c-4.596-1.844-8.891-4.438-13.239-7.277c8.167,1.053,15.96-0.465,23.722-2.14
	c7.947-1.714,14.826-5.697,22.042-10.655c-7.056-0.692-12.728-3.312-17.932-7.033c-5.422-3.877-8.555-9.314-11.219-15.908
	C1113.039,143.029,1116.844,143.029,1120.649,143.029z"/>
<path fill="#FFFFFF" d="M930.591,81H949V50h-27.055c0,0-29.945,0-29.945,40.465V110h-25v30h25v70h29v-70h23.246l4.096-30H921V90.465
	C921,90.465,920.909,81,930.591,81z"/>
<g>
	<path fill="#FFFFFF" d="M349.699,130.152c-0.047-22.845,18.327-41.174,41.306-41.206c23.111-0.033,41.409,18.243,41.482,41.431
		c0.072,22.857-18.253,41.292-41.152,41.401C368.017,171.888,349.747,153.622,349.699,130.152z M418.123,130.586
		c-0.062-15.117-12.093-27.269-27.011-27.285c-14.761-0.015-27.285,12.384-27.094,26.826c0.202,15.255,12.079,27.26,27.012,27.302
		C405.74,157.47,418.182,145.142,418.123,130.586z"/>
	<path fill="#FFFFFF" d="M434.121,96.729c-5.356-0.083-9.459-4.234-9.447-9.559c0.013-5.424,4.434-9.776,9.801-9.648
		c5.182,0.124,9.486,4.484,9.51,9.632C444.009,92.49,439.556,96.813,434.121,96.729z"/>
	<g>
		<path fill="#FFFFFF" d="M469,167.339C469,190.348,450.348,209,427.339,209H351.66c-23.008,0-41.66-18.652-41.66-41.661V91.661
			C310,68.652,328.652,50,351.661,50h75.679C450.348,50,469,68.652,469,91.661V167.339z M456,91.505
			C456,75.762,443.238,63,427.495,63h-75.991C335.762,63,323,75.762,323,91.505v75.991C323,183.238,335.762,196,351.505,196h75.991
			C443.238,196,456,183.238,456,167.495V91.505z"/>
	</g>
</g>
<path fill="#FFFFFF" d="M651.875,187.121c-7.986-0.122-15.972-0.208-23.956-0.377c-5.504-0.117-11.011-0.243-16.506-0.556
	c-6.499-0.37-12.99-0.893-19.476-1.459c-2.683-0.234-5.382-0.61-7.918-1.591c-7.23-2.796-11.672-8.018-13.335-15.588
	c-1.049-4.773-1.563-9.621-1.96-14.484c-0.728-8.911-1.061-17.836-0.927-26.775c0.106-7.119,0.426-14.231,1.088-21.322
	c0.44-4.715,0.845-9.459,2.172-14.018c2.423-8.324,7.94-13.476,16.479-15.184c4.968-0.993,10.031-1.288,15.08-1.609
	c15.404-0.977,30.83-1.26,46.259-1.279c8.772-0.01,17.544,0.225,26.315,0.414c4.697,0.102,9.393,0.295,14.086,0.531
	c6.523,0.328,13.043,0.739,19.514,1.683c3.573,0.521,7.04,1.362,10.114,3.387c4.669,3.076,7.585,7.355,8.86,12.787
	c0.877,3.734,1.433,7.516,1.831,11.326c1.08,10.343,1.444,20.718,1.285,31.11c-0.106,6.897-0.431,13.787-1.084,20.655
	c-0.473,4.975-0.964,9.965-2.385,14.776c-2.333,7.897-7.655,12.705-15.657,14.475c-4.059,0.898-8.211,1.231-12.356,1.473
	c-6.803,0.397-13.608,0.804-20.418,1.036c-7.417,0.252-14.84,0.315-22.261,0.448c-1.613,0.029-3.227,0.004-4.84,0.004
	C651.876,187.03,651.875,187.076,651.875,187.121z M675.547,130.003c-14.203-8.198-28.303-16.336-42.462-24.508
	c0,16.353,0,32.585,0,48.915C647.258,146.264,661.347,138.165,675.547,130.003z"/>
</svg>
